<?xml version="1.0" standalone="no"?>
<!DOCTYPE svg PUBLIC "-//W3C//DTD SVG 20010904//EN"
 "http://www.w3.org/TR/2001/REC-SVG-20010904/DTD/svg10.dtd">
<svg version="1.0" xmlns="http://www.w3.org/2000/svg"
 width="300.000000pt" height="265.000000pt" viewBox="0 0 300.000000 265.000000"
 preserveAspectRatio="xMidYMid meet">
<metadata>
Created by potrace 1.10, written by Peter Selinger 2001-2011
</metadata>
<g transform="translate(0.000000,265.000000) scale(0.100000,-0.100000)"
fill="#000000" stroke="none">
<path d="M1652 2581 c-86 -55 -95 -184 -16 -236 30 -19 32 -5 3 21 -29 26 -49
68 -49 101 0 59 64 123 122 123 36 0 88 -37 104 -75 11 -26 12 -45 5 -77 -12
-50 -62 -103 -92 -95 -14 4 -19 0 -19 -13 0 -17 2 -18 41 -2 73 28 113 106 90
174 -27 83 -121 121 -189 79z"/>
<path d="M1670 2513 c0 -10 -3 -36 -6 -58 -5 -28 -3 -37 4 -30 6 6 12 26 15
45 4 33 4 33 5 -7 1 -24 7 -43 13 -43 6 0 8 7 5 16 -3 9 -6 33 -6 55 0 28 -4
39 -15 39 -8 0 -15 -8 -15 -17z"/>
<path d="M1720 2475 c0 -30 5 -55 10 -55 6 0 10 25 10 55 0 30 -4 55 -10 55
-5 0 -10 -25 -10 -55z"/>
<path d="M555 2510 c90 -9 125 -20 172 -56 101 -77 121 -251 41 -348 -33 -40
-81 -66 -173 -91 -128 -36 -138 -47 -110 -125 8 -22 10 -40 5 -40 -18 0 -67
26 -142 75 -42 27 -103 66 -134 85 -65 40 -133 132 -135 184 l-2 31 -4 -28
c-6 -38 38 -127 82 -166 19 -16 56 -42 82 -57 26 -15 84 -51 128 -80 80 -54
141 -82 152 -70 4 3 -2 30 -12 60 -10 29 -15 60 -12 69 3 9 25 21 49 28 172
47 223 74 264 144 58 100 39 231 -46 316 -57 57 -122 80 -219 78 l-66 -2 80
-7z"/>
<path d="M423 2503 c9 -2 25 -2 35 0 9 3 1 5 -18 5 -19 0 -27 -2 -17 -5z"/>
<path d="M298 2483 c6 -2 18 -2 25 0 6 3 1 5 -13 5 -14 0 -19 -2 -12 -5z"/>
<path d="M195 2450 c-3 -6 1 -7 9 -4 18 7 21 14 7 14 -6 0 -13 -4 -16 -10z"/>
<path d="M131 2397 c-13 -21 -12 -21 5 -5 10 10 16 20 13 22 -3 3 -11 -5 -18
-17z"/>
<path d="M594 2404 c-12 -5 27 -240 39 -237 4 1 21 4 37 8 20 4 27 11 23 21
-3 8 -12 13 -19 10 -8 -3 -21 -9 -29 -12 -11 -5 -15 1 -14 22 l1 29 8 -25 c14
-44 11 2 -7 98 -9 50 -19 92 -23 91 -3 0 -10 -3 -16 -5z"/>
<path d="M494 2338 c17 -139 16 -143 -10 -50 -25 84 -29 92 -48 86 -12 -4 -22
-7 -23 -8 -5 -4 44 -227 50 -227 25 -1 27 9 14 61 -8 30 -17 48 -19 40 -3 -8
-3 -5 -1 8 2 12 -1 32 -8 43 -15 28 -21 69 -11 69 5 0 21 -40 35 -90 37 -121
51 -118 41 11 -5 75 -4 100 5 95 6 -4 11 -32 11 -64 0 -31 3 -81 6 -109 6 -44
10 -53 26 -53 16 0 19 5 15 23 -3 12 -13 66 -23 120 -17 91 -19 97 -42 97 -24
0 -24 -2 -18 -52z m63 -140 c-3 -8 -6 -5 -6 6 -1 11 2 17 5 13 3 -3 4 -12 1
-19z"/>
<path d="M2485 2351 c-67 -30 -120 -105 -131 -183 -14 -101 36 -174 161 -239
77 -41 84 -57 45 -111 -11 -15 -20 -32 -20 -39 0 -18 65 -2 151 37 42 19 83
34 90 34 26 1 95 37 134 71 50 45 75 100 75 172 0 100 -40 156 -150 205 -156
71 -277 89 -355 53z m233 -23 c150 -51 204 -85 237 -147 42 -83 -3 -218 -89
-269 -18 -11 -59 -28 -92 -40 -32 -11 -84 -32 -114 -46 -30 -14 -63 -26 -72
-26 -16 0 -16 3 -2 36 24 57 13 74 -73 119 -105 55 -143 104 -143 183 0 72 26
129 76 170 72 60 141 65 272 20z"/>
<path d="M2547 2187 c-33 -89 -33 -93 -4 -101 29 -8 46 14 71 87 20 59 18 70
-19 81 -18 5 -24 -4 -48 -67z m39 -19 c-12 -34 -28 -64 -34 -66 -7 -2 -1 24
13 62 14 37 25 69 25 72 0 3 4 2 10 -1 6 -3 0 -30 -14 -67z"/>
<path d="M2647 2163 c-14 -37 -29 -75 -32 -84 -4 -10 3 -19 19 -27 19 -9 25
-8 30 4 3 8 -1 14 -10 14 -11 0 -14 5 -9 18 37 95 46 125 38 133 -6 6 -20 -16
-36 -58z"/>
<path d="M333 2348 c2 -7 13 -61 23 -120 16 -93 21 -108 37 -108 15 0 18 5 14
23 -3 12 -13 66 -23 120 -15 83 -20 97 -37 97 -11 0 -17 -5 -14 -12z m44 -140
c-3 -8 -6 -5 -6 6 -1 11 2 17 5 13 3 -3 4 -12 1 -19z"/>
<path d="M223 2334 c-7 -3 -10 -18 -8 -37 3 -18 7 -72 11 -120 5 -75 8 -88 22
-85 11 2 16 11 14 26 -4 28 28 31 35 3 3 -12 11 -17 22 -14 17 4 15 14 -18
119 -35 112 -43 122 -78 108z m30 -31 c3 -10 11 -47 18 -83 10 -51 14 -60 19
-40 l6 25 6 -27 c3 -17 1 -28 -6 -28 -23 0 -34 16 -41 55 -4 22 -9 47 -12 55
-12 29 -14 60 -4 60 5 0 12 -8 14 -17z m-2 -175 c-9 -20 -10 -18 -10 17 0 31
2 36 9 23 6 -10 7 -25 1 -40z"/>
<path d="M1568 2303 c7 -3 16 -2 19 1 4 3 -2 6 -13 5 -11 0 -14 -3 -6 -6z"/>
<path d="M72 2275 c0 -16 2 -22 5 -12 2 9 2 23 0 30 -3 6 -5 -1 -5 -18z"/>
<path d="M1710 2291 c-10 -7 5 -9 50 -9 77 2 170 -11 170 -22 0 -4 8 -6 19 -3
10 3 22 0 25 -6 4 -6 2 -11 -4 -11 -6 0 -8 -5 -4 -11 4 -8 9 -7 15 2 10 17 37
2 101 -56 47 -43 71 -60 104 -74 29 -13 72 -103 80 -168 6 -52 6 -53 -18 -53
-23 0 -108 -52 -108 -67 0 -3 9 2 20 12 22 20 25 10 9 -32 -14 -36 -13 -161 2
-231 6 -29 8 -56 6 -59 -8 -7 -47 72 -47 93 0 10 -3 15 -6 11 -16 -16 12 -75
54 -115 l45 -43 -27 -68 c-45 -115 -164 -240 -261 -275 -24 -9 -32 -15 -20
-15 39 -2 127 53 188 119 61 64 112 151 123 210 6 26 11 30 41 30 l34 0 -34
-35 c-19 -19 -49 -65 -68 -102 -28 -55 -35 -80 -38 -145 l-3 -77 -34 -13 c-19
-6 -34 -15 -34 -19 0 -4 -17 -10 -37 -14 -21 -3 -49 -9 -62 -12 -21 -5 -22 -4
-12 15 7 14 8 23 1 27 -5 3 -10 2 -10 -3 0 -21 -100 -38 -169 -29 -119 15
-132 18 -126 26 8 13 -37 19 -154 19 l-106 0 115 -12 c63 -7 131 -19 150 -28
l35 -16 -81 -1 c-45 -1 -115 -4 -157 -7 -76 -7 -77 -7 -77 17 0 51 11 69 41
69 15 0 31 5 35 11 4 7 -5 10 -27 8 -37 -4 -84 -43 -73 -61 5 -7 -1 -9 -17 -5
-13 3 -51 9 -84 12 -33 4 -78 15 -100 25 -22 10 -62 26 -90 36 l-50 19 75 6
c76 5 77 7 5 15 -22 2 -56 7 -75 11 -19 3 -39 6 -43 5 -30 -7 -112 69 -102 95
2 8 1 12 -4 9 -8 -5 -43 65 -57 114 -12 43 -6 211 10 306 53 305 152 445 348
494 81 21 232 44 382 59 54 6 101 12 104 15 23 24 -401 -30 -513 -65 -98 -30
-189 -107 -248 -209 -58 -103 -112 -370 -105 -531 3 -83 8 -104 36 -161 34
-70 72 -110 146 -153 68 -40 285 -125 314 -124 27 1 27 1 -3 9 -29 7 -30 8 -4
9 30 1 82 -22 72 -32 -3 -4 -25 -7 -47 -7 -23 0 -63 -6 -91 -14 -138 -36 -185
-99 -185 -246 0 -44 -4 -80 -8 -80 -5 0 -17 -8 -28 -18 -10 -9 -30 -18 -44
-19 -82 -6 -80 -5 -95 -57 -8 -27 -15 -59 -15 -70 0 -30 -11 -66 -20 -66 -4 0
-37 14 -74 31 -59 28 -65 33 -55 50 6 11 20 24 32 29 18 7 19 9 4 9 -33 2 -57
-18 -57 -47 0 -25 8 -32 68 -61 37 -17 87 -34 112 -37 55 -5 175 13 189 30 7
8 1 29 -19 70 -35 69 -38 106 -11 123 17 11 20 9 24 -10 2 -12 3 -7 1 10 -1
18 2 33 7 33 5 0 9 32 9 73 -1 81 7 130 21 135 5 2 9 10 9 17 0 13 28 30 43
26 5 -1 6 3 3 8 -8 12 85 49 154 61 30 5 170 11 311 12 232 3 257 1 273 -14
10 -10 26 -18 37 -18 10 0 19 -6 19 -14 0 -35 84 -26 108 13 9 14 17 28 19 30
1 2 15 -8 29 -22 31 -31 128 -97 142 -97 6 0 12 -6 15 -12 2 -7 8 -10 11 -6 4
3 -25 28 -65 55 -40 26 -75 53 -77 60 -2 6 6 21 17 32 26 26 27 34 4 22 -10
-6 -35 -13 -56 -16 -33 -5 -51 -21 -72 -62 -1 -2 -19 6 -40 17 -22 11 -50 20
-62 20 -13 0 -23 3 -23 8 0 4 30 8 68 9 66 1 149 26 198 58 21 13 23 21 18 55
-13 81 42 223 114 293 42 41 138 87 128 62 -3 -8 -8 -37 -12 -65 -5 -35 -12
-51 -24 -55 -54 -17 -107 -91 -111 -156 -5 -66 0 -91 20 -96 24 -6 51 -60 51
-100 0 -51 -20 -104 -43 -113 -14 -6 -17 -9 -7 -10 34 -3 53 -9 63 -19 6 -6
22 -11 36 -10 15 0 20 3 14 6 -10 3 -10 10 -2 25 9 17 13 18 20 7 5 -9 9 -9 9
-2 0 6 20 23 45 38 100 58 166 183 169 320 1 90 -14 133 -53 147 -21 7 -30 2
-67 -37 -42 -43 -44 -48 -44 -106 0 -65 -21 -118 -62 -156 -35 -33 -80 -19
-92 29 -18 71 16 150 84 196 26 17 38 35 47 70 19 71 17 89 -12 96 -25 6 -25
7 -9 39 41 79 23 256 -31 307 -14 13 -25 30 -25 37 0 25 -41 95 -83 140 -56
61 -261 224 -317 254 -37 19 -64 24 -150 26 -59 2 -111 0 -120 -6z m640 -376
c10 -22 17 -41 15 -43 -2 -2 -19 0 -39 3 -29 6 -37 13 -41 34 -3 14 -14 53
-24 86 l-20 60 45 -50 c25 -27 54 -68 64 -90z m-37 -51 c30 -16 30 -17 10 -25
-26 -9 -30 -16 -48 -75 -13 -44 -13 -45 4 -30 10 9 20 13 24 10 3 -3 15 17 28
45 28 67 52 68 81 5 22 -50 29 -161 15 -224 -4 -19 -9 -42 -11 -50 -5 -26 -53
-24 -70 2 -17 27 -40 150 -33 178 3 11 1 23 -4 26 -16 10 -10 -136 8 -186 16
-44 16 -49 0 -64 -14 -14 -23 -15 -56 -6 -25 6 -42 18 -46 30 -4 11 -11 20
-17 20 -6 0 -9 3 -6 6 4 3 0 21 -8 39 -17 41 -18 159 -3 221 10 38 18 49 48
62 20 9 38 20 39 25 5 10 9 9 45 -9z m268 -490 c7 -9 15 -53 18 -102 4 -74 6
-81 12 -47 l7 40 -2 -40 c-1 -28 -5 -39 -15 -37 -10 2 -12 -5 -9 -27 2 -17 1
-28 -4 -25 -7 5 -12 -13 -11 -43 0 -7 -4 -11 -11 -10 -6 1 -11 -9 -11 -23 0
-14 -5 -25 -10 -25 -6 0 -26 -16 -46 -36 -36 -37 -106 -79 -133 -79 -12 0 -14
15 -12 78 3 74 4 77 25 74 53 -8 113 89 113 179 0 50 4 63 29 91 16 18 29 36
29 41 0 12 17 8 31 -9z m-171 -19 c0 -2 -10 -9 -22 -15 -22 -11 -22 -10 -4 4
21 17 26 19 26 11z m-63 -49 c-8 -9 -17 -21 -20 -28 -2 -7 -7 -10 -11 -7 -3 3
3 18 15 33 12 15 24 25 26 22 3 -3 -2 -12 -10 -20z m-45 -107 c-3 -20 -8 -27
-14 -21 -11 11 -2 52 11 52 4 0 6 -14 3 -31z m-5 -61 c-3 -8 -6 -5 -6 6 -1 11
2 17 5 13 3 -3 4 -12 1 -19z m-1306 -545 c6 -21 20 -60 30 -86 18 -46 18 -48
2 -46 -10 2 -27 0 -38 -3 -11 -4 -42 -9 -69 -13 l-49 -7 6 54 c12 103 30 128
99 137 3 1 12 -16 19 -36z"/>
<path d="M2182 1680 c0 -14 2 -19 5 -12 2 6 2 18 0 25 -3 6 -5 1 -5 -13z"/>
<path d="M2267 1565 c-4 -8 -2 -17 3 -20 6 -4 10 3 10 14 0 25 -6 27 -13 6z"/>
<path d="M2576 1330 c10 -93 -36 -233 -99 -299 -18 -18 -52 -47 -76 -62 -25
-16 -38 -29 -29 -29 29 0 113 65 145 113 64 96 87 203 62 292 -6 24 -7 21 -3
-15z"/>
<path d="M922 542 c-18 -3 -21 -7 -12 -17 12 -14 50 -9 50 7 0 6 7 4 17 -3 14
-12 16 -12 11 1 -5 15 -24 19 -66 12z"/>
<path d="M1608 2183 c12 -2 32 -2 45 0 12 2 2 4 -23 4 -25 0 -35 -2 -22 -4z"/>
<path d="M1425 2170 c-33 -6 -35 -7 -10 -8 17 0 53 3 80 8 47 7 48 7 10 7 -22
0 -58 -3 -80 -7z"/>
<path d="M1678 2163 c7 -3 16 -2 19 1 4 3 -2 6 -13 5 -11 0 -14 -3 -6 -6z"/>
<path d="M1748 2163 c7 -3 16 -2 19 1 4 3 -2 6 -13 5 -11 0 -14 -3 -6 -6z"/>
<path d="M1318 2153 c12 -2 32 -2 45 0 12 2 2 4 -23 4 -25 0 -35 -2 -22 -4z"/>
<path d="M1455 2149 c-90 -12 -105 -17 -85 -29 8 -6 20 -10 25 -10 6 0 4 4 -4
9 -10 6 3 11 40 16 129 15 175 23 134 23 -22 -1 -71 -4 -110 -9z"/>
<path d="M1238 2143 c12 -2 30 -2 40 0 9 3 -1 5 -23 4 -22 0 -30 -2 -17 -4z"/>
<path d="M1718 2143 c6 -2 18 -2 25 0 6 3 1 5 -13 5 -14 0 -19 -2 -12 -5z"/>
<path d="M1800 2140 c0 -5 5 -10 11 -10 5 0 7 5 4 10 -3 6 -8 10 -11 10 -2 0
-4 -4 -4 -10z"/>
<path d="M1101 2119 c-14 -5 -45 -26 -69 -46 -47 -38 -95 -126 -106 -193 -5
-27 -2 -24 12 15 10 28 28 66 39 85 34 55 115 128 153 138 19 6 26 10 15 10
-11 1 -31 -4 -44 -9z"/>
<path d="M1293 2123 c9 -2 25 -2 35 0 9 3 1 5 -18 5 -19 0 -27 -2 -17 -5z"/>
<path d="M1474 2100 c-94 -10 -197 -23 -229 -29 -167 -31 -221 -106 -265 -370
-35 -211 -21 -292 56 -330 25 -12 69 -13 299 -3 149 6 289 16 313 23 57 15
135 87 166 152 49 100 92 442 67 519 -9 27 -20 39 -43 47 -43 15 -163 12 -364
-9z m364 -24 c18 -18 32 -82 27 -126 -2 -19 -7 -66 -10 -105 -5 -73 -28 -206
-40 -240 -33 -91 -87 -157 -150 -180 -45 -18 -115 -13 -85 5 7 4 19 6 26 3 15
-5 55 32 46 43 -4 4 1 4 11 1 9 -4 17 -2 17 3 0 6 -5 10 -10 10 -6 0 -5 8 2
19 7 11 17 17 23 14 5 -4 -1 6 -14 20 -27 29 -62 35 -80 13 -29 -35 -113 -58
-225 -62 -106 -4 -111 -3 -167 26 -32 16 -65 30 -73 30 -20 0 -46 -39 -39 -59
10 -26 67 -81 85 -81 9 0 20 -5 23 -10 5 -7 -24 -10 -87 -8 l-93 3 -21 44
c-22 45 -22 51 -9 196 19 215 72 344 158 383 43 19 159 39 297 52 69 7 154 15
190 20 85 10 181 4 198 -14z m-179 -539 c8 -10 4 -20 -17 -40 -104 -100 -412
-117 -501 -28 -12 12 -21 28 -21 36 0 28 29 28 56 2 66 -66 312 -59 409 12 46
33 58 36 74 18z"/>
<path d="M1619 1837 c-40 -27 -59 -60 -59 -105 0 -110 116 -158 190 -79 59 63
55 152 -10 190 -39 23 -81 21 -121 -6z m114 -9 c49 -26 60 -73 31 -133 -29
-62 -95 -85 -147 -51 -103 68 6 243 116 184z"/>
<path d="M1119 1805 c-40 -22 -63 -74 -57 -128 16 -141 200 -111 209 34 4 53
-10 80 -47 95 -42 17 -72 17 -105 -1z m115 -26 c62 -49 7 -179 -76 -179 -15 0
-40 11 -55 24 -23 20 -28 32 -28 69 0 89 92 139 159 86z"/>
<path d="M1110 2075 c-14 -8 -19 -14 -10 -14 8 0 26 6 40 14 14 8 19 14 10 14
-8 0 -26 -6 -40 -14z"/>
<path d="M1036 2029 c-27 -32 -33 -49 -16 -49 6 0 10 7 10 16 0 9 5 12 12 8 7
-5 8 -3 3 6 -6 10 -4 12 9 7 9 -4 14 -3 11 2 -3 5 -1 12 5 16 5 3 10 10 10 16
0 18 -18 9 -44 -22z"/>
<path d="M997 1964 c-4 -4 -7 -17 -7 -28 1 -19 1 -20 11 -3 11 19 8 43 -4 31z"/>
<path d="M2112 1860 c0 -14 2 -19 5 -12 2 6 2 18 0 25 -3 6 -5 1 -5 -13z"/>
<path d="M910 1820 c0 -11 2 -20 4 -20 2 0 6 9 9 20 3 11 1 20 -4 20 -5 0 -9
-9 -9 -20z"/>
<path d="M906 1778 c-22 -70 -37 -271 -22 -285 3 -4 6 20 6 53 1 32 7 101 14
152 11 82 12 115 2 80z"/>
<path d="M220 1700 c-41 -11 -78 -24 -84 -30 -5 -5 13 -2 40 6 131 40 189 37
236 -13 15 -16 31 -47 38 -71 9 -36 8 -49 -8 -85 -16 -36 -30 -49 -83 -76 -84
-43 -100 -58 -93 -87 4 -14 2 -24 -4 -24 -6 0 -50 20 -99 44 -83 42 -133 88
-133 124 0 6 -4 13 -9 17 -15 8 6 -56 27 -85 10 -14 45 -38 78 -55 33 -16 71
-37 85 -46 30 -20 86 -39 92 -32 3 2 -1 20 -9 38 -8 19 -14 37 -14 40 0 2 33
21 74 40 53 25 80 45 95 69 28 44 28 116 0 166 -41 73 -111 91 -229 60z"/>
<path d="M915 1623 c-8 -71 -8 -79 -5 -123 2 -19 6 12 10 70 9 115 5 146 -5
53z"/>
<path d="M274 1555 c19 -79 22 -86 43 -83 13 2 23 8 23 13 -1 6 -7 9 -13 8 -8
-2 -18 20 -25 55 -20 85 -22 92 -36 92 -10 0 -9 -19 8 -85z"/>
<path d="M203 1622 c-10 -6 -10 -24 -4 -139 1 -7 5 -13 9 -13 4 0 7 30 6 68
l-3 67 8 -52 c13 -78 20 -103 31 -103 13 0 13 1 -9 93 -21 87 -22 89 -38 79z"/>
<path d="M130 1608 c0 -2 11 -42 23 -89 14 -53 27 -84 34 -82 8 3 6 20 -8 60
-22 64 -24 93 -4 48 17 -37 19 -25 3 26 -8 27 -17 39 -30 39 -10 0 -18 -1 -18
-2z"/>
<path d="M2057 1516 c-10 -47 -17 -93 -17 -103 1 -24 27 53 33 97 3 19 8 47
12 63 4 15 3 27 -2 27 -6 0 -17 -38 -26 -84z"/>
<path d="M920 1430 c13 -25 42 -51 49 -45 2 2 -11 19 -29 37 -28 28 -31 29
-20 8z"/>
<path d="M1739 1393 c-13 -16 -12 -17 4 -4 16 13 21 21 13 21 -2 0 -10 -8 -17
-17z"/>
<path d="M871 1364 c0 -11 3 -14 6 -6 3 7 2 16 -1 19 -3 4 -6 -2 -5 -13z"/>
<path d="M697 1333 c-8 -10 -18 -39 -22 -64 -6 -41 -4 -47 18 -62 34 -22 60
-82 53 -121 -4 -22 -3 -27 4 -16 5 8 10 34 10 57 0 34 -6 48 -32 74 -18 17
-27 28 -20 25 6 -4 12 -3 12 2 0 5 -9 12 -19 15 -18 4 -19 9 -10 43 14 50 34
72 26 28 -3 -16 -7 -34 -9 -40 -2 -5 2 -11 7 -14 6 -3 11 7 13 23 4 37 18 34
63 -13 25 -26 44 -60 55 -95 17 -61 13 -97 -18 -159 l-20 -39 -19 32 c-14 24
-16 37 -9 57 13 34 13 101 -1 109 -7 5 -8 -4 -4 -27 7 -39 -18 -114 -35 -103
-23 14 -8 -14 16 -30 14 -9 31 -30 38 -47 l13 -30 27 35 c16 21 25 41 20 48
-4 7 -3 9 4 5 15 -9 26 53 20 109 -8 66 -48 135 -104 177 -27 21 -52 38 -55
38 -3 0 -13 -8 -22 -17z"/>
<path d="M461 1295 c-41 -47 -60 -86 -67 -137 -12 -86 40 -194 113 -239 21
-13 41 -27 44 -32 12 -18 26 2 21 31 -4 32 22 92 41 92 6 0 -5 11 -25 25 -59
40 -74 109 -34 167 l23 35 -24 46 c-29 57 -50 60 -92 12z m31 -8 c-54 -55 -74
-141 -49 -201 12 -27 13 -23 12 45 0 66 3 81 28 117 15 23 31 42 36 42 5 0 16
-11 25 -25 16 -24 16 -27 -3 -51 -33 -42 -36 -84 -10 -138 12 -26 28 -50 34
-53 17 -6 -4 -63 -22 -63 -18 0 -16 -10 4 -26 10 -7 14 -16 10 -21 -5 -4 -14
0 -21 10 -7 9 -17 17 -23 17 -17 0 -61 54 -82 100 -25 55 -27 139 -5 183 19
37 73 97 88 97 5 0 -4 -15 -22 -33z"/>
<path d="M461 997 c2 -2 18 -11 34 -21 l30 -17 -24 20 c-13 12 -28 21 -34 21
-6 0 -8 -1 -6 -3z"/>
<path d="M986 1312 c-2 -4 4 -9 15 -9 11 -1 17 2 14 8 -7 11 -22 12 -29 1z"/>
<path d="M1378 1313 c7 -3 16 -2 19 1 4 3 -2 6 -13 5 -11 0 -14 -3 -6 -6z"/>
<path d="M910 1266 c0 -2 8 -10 18 -17 15 -13 16 -12 3 4 -13 16 -21 21 -21
13z"/>
<path d="M1718 1193 c7 -3 16 -2 19 1 4 3 -2 6 -13 5 -11 0 -14 -3 -6 -6z"/>
<path d="M1920 1156 c0 -2 8 -10 18 -17 15 -13 16 -12 3 4 -13 16 -21 21 -21
13z"/>
<path d="M1190 1140 c0 -5 30 -19 98 -46 28 -11 32 -11 32 3 0 9 -6 13 -15 9
-8 -3 -15 -1 -15 4 0 6 -11 10 -25 10 -26 0 -34 15 -12 23 6 2 -5 3 -25 3 -21
-1 -38 -3 -38 -6z"/>
<path d="M648 1029 c-25 -14 -23 -33 1 -19 11 5 31 10 46 10 15 0 24 4 20 10
-8 13 -45 12 -67 -1z"/>
<path d="M2190 966 c0 -2 8 -10 18 -17 15 -13 16 -12 3 4 -13 16 -21 21 -21
13z"/>
<path d="M1973 920 c-13 -5 -23 -12 -23 -15 0 -4 5 -3 11 1 7 4 9 2 5 -7 -3
-8 -9 -22 -12 -31 -6 -16 -8 -15 -24 5 -18 21 -18 21 -2 -28 14 -44 16 -47 22
-25 4 14 17 44 29 68 12 23 20 42 19 41 -2 0 -13 -4 -25 -9z"/>
<path d="M745 913 c11 -2 30 -6 43 -9 18 -3 22 -12 23 -42 1 -37 1 -37 9 -7 6
25 8 21 9 -25 0 -31 5 -60 10 -65 5 -6 12 -36 16 -67 l6 -57 -58 -30 c-68 -35
-61 -40 13 -10 82 34 96 73 73 208 -17 101 -27 111 -102 110 -34 -1 -53 -3
-42 -6z m124 -94 c6 -36 10 -83 10 -105 -1 -30 -6 -18 -20 51 -10 50 -18 101
-19 115 0 44 17 7 29 -61z"/>
<path d="M1834 903 c-3 -10 -10 -26 -15 -35 -14 -26 7 -23 25 4 9 12 19 19 23
15 3 -4 -3 -20 -15 -36 l-22 -30 32 1 c26 1 29 3 16 11 -14 10 -15 13 -1 34 8
13 11 23 7 24 -5 0 0 5 11 10 19 9 18 9 -2 5 -13 -2 -26 0 -29 5 -9 15 -24 10
-30 -8z"/>
<path d="M1778 843 c-13 -27 -23 -54 -20 -62 2 -7 15 13 28 45 13 32 22 59 20
61 -2 2 -14 -18 -28 -44z"/>
<path d="M2430 861 c16 -31 13 -33 -54 -26 -35 4 -66 3 -69 -2 -3 -5 7 -8 22
-7 33 2 45 -4 54 -30 4 -10 13 -16 22 -12 8 3 17 2 19 -3 8 -12 -39 -102 -49
-94 -4 5 -5 3 -2 -4 4 -6 1 -17 -6 -25 -7 -7 -16 -22 -21 -33 -6 -16 -9 -17
-16 -5 -8 13 -10 13 -10 -1 0 -20 -87 -63 -94 -46 -3 9 -5 9 -5 0 -1 -7 -6
-13 -12 -13 -7 0 -18 -8 -25 -17 -8 -11 -13 -13 -14 -5 0 6 -7 12 -16 12 -30
0 -126 54 -134 76 -9 22 -30 42 -30 28 0 -4 9 -22 21 -40 19 -31 88 -74 118
-74 6 0 11 -7 11 -15 0 -8 -4 -15 -9 -15 -6 0 -29 -13 -53 -29 -24 -16 -57
-32 -74 -35 -27 -6 -35 -3 -56 23 -37 44 -45 97 -19 132 12 16 21 33 21 39 0
6 5 8 10 5 15 -9 12 18 -3 40 -32 43 -139 -16 -152 -85 l-6 -35 18 35 c18 35
74 80 100 80 24 0 26 -28 4 -56 -28 -36 -27 -89 4 -142 14 -24 22 -48 19 -53
-3 -5 0 -8 8 -7 7 2 11 -3 9 -12 -2 -8 -12 -44 -21 -80 -9 -36 -23 -76 -29
-89 -11 -19 -11 -22 0 -16 7 5 5 -2 -4 -16 -9 -13 -17 -34 -17 -47 0 -15 -4
-21 -12 -16 -8 5 -9 2 -5 -10 4 -10 -1 -24 -13 -36 -11 -11 -21 -23 -22 -27
-2 -5 -9 -6 -17 -5 -7 2 -10 -1 -7 -6 19 -32 -154 -38 -343 -12 -293 39 -314
56 -367 289 -12 57 -26 106 -29 109 -20 20 27 -188 58 -260 34 -76 70 -102
174 -127 192 -44 415 -63 494 -41 19 6 45 20 57 33 30 32 66 126 97 256 l27
109 38 5 c26 3 60 21 102 53 35 27 65 52 66 56 2 4 14 8 26 8 42 0 91 22 129
59 42 40 117 179 117 218 0 29 -17 63 -31 63 -6 0 -6 -7 1 -19z m10 -51 c0 -5
-6 -10 -14 -10 -8 0 -18 5 -21 10 -3 6 3 10 14 10 12 0 21 -4 21 -10z"/>
<path d="M504 844 c-15 -23 -16 -35 -6 -111 7 -51 20 -101 34 -126 26 -47 81
-80 125 -75 26 4 25 5 -14 17 -23 8 -40 18 -36 24 3 6 1 7 -5 3 -17 -10 -57
35 -70 79 -7 22 -14 75 -16 117 -4 65 -1 80 12 88 10 5 12 10 5 10 -7 0 -20
-12 -29 -26z"/>
<path d="M1353 803 c-13 -20 -17 -21 -27 -9 -7 8 -39 17 -81 21 -81 7 -103 -3
-111 -52 -4 -26 0 -35 19 -48 23 -15 24 -19 25 -160 0 -79 3 -149 7 -155 9
-14 80 -13 93 3 6 7 12 74 14 159 2 146 2 147 26 151 l24 5 -7 -144 c-5 -101
-4 -148 4 -158 8 -9 39 -14 96 -15 108 -3 125 11 125 97 0 33 3 106 6 163 8
135 6 138 -110 154 -87 11 -88 11 -103 -12z m-38 -33 c9 -41 8 -44 -18 -45
-26 0 -24 10 -26 -178 l-1 -148 -37 3 -38 3 -3 164 c-2 157 -3 163 -22 158
-27 -7 -32 5 -19 42 11 31 11 31 84 31 73 0 73 0 80 -30z m209 20 c25 -9 26
-13 26 -89 0 -45 -5 -83 -10 -86 -8 -5 -7 -11 1 -21 12 -15 7 -143 -6 -164 -3
-6 -49 -10 -101 -10 l-96 0 6 28 c3 15 8 100 12 190 l6 162 68 0 c38 0 80 -4
94 -10z"/>
<path d="M1430 679 c0 -47 2 -50 23 -47 19 3 22 10 25 51 3 45 2 47 -22 47
-24 0 -26 -3 -26 -51z m27 -1 c-3 -7 -5 -2 -5 12 0 14 2 19 5 13 2 -7 2 -19 0
-25z"/>
<path d="M1426 538 c-7 -46 -2 -58 25 -58 16 0 19 7 19 44 0 34 -4 45 -19 49
-15 4 -20 -2 -25 -35z"/>
<path d="M1810 792 c-33 -10 -67 -70 -64 -112 2 -50 28 -130 46 -146 21 -19
21 -19 8 6 -8 14 -15 57 -16 95 -1 39 -4 79 -6 90 -5 29 54 57 114 53 36 -2
44 0 36 10 -10 12 -85 15 -118 4z"/>
<path d="M1901 756 c-1 -14 -4 -16 -14 -7 -14 11 -27 5 -27 -11 0 -5 5 -6 10
-3 6 3 10 0 10 -7 0 -8 13 -15 31 -16 25 -2 30 1 25 14 -3 8 -6 20 -6 25 0 6
-4 8 -9 5 -5 -4 -12 0 -14 6 -3 8 -6 5 -6 -6z"/>
<path d="M1982 594 c-7 -8 -9 -14 -5 -15 4 0 -1 -4 -12 -9 -14 -6 -15 -9 -5
-9 17 -1 53 36 42 43 -4 2 -13 -2 -20 -10z"/>
<path d="M1042 565 c0 -16 2 -22 5 -12 2 9 2 23 0 30 -3 6 -5 -1 -5 -18z"/>
<path d="M1842 560 c7 -11 18 -22 25 -24 10 -4 10 -1 1 14 -7 11 -18 22 -25
24 -10 4 -10 1 -1 -14z"/>
<path d="M1820 531 c0 -5 14 -19 30 -31 17 -12 27 -26 24 -32 -4 -7 -2 -8 5
-4 6 4 14 1 17 -8 3 -8 12 -17 20 -20 9 -3 6 7 -9 29 -12 19 -27 35 -33 35 -5
0 -20 9 -32 20 -12 12 -22 16 -22 11z"/>
</g>
</svg>
